<svg version="1.1" viewBox="0.0 0.0 545.6981627296587 601.8766404199475" fill="none" stroke="none" stroke-linecap="square" stroke-miterlimit="10" xmlns:xlink="http://www.w3.org/1999/xlink" xmlns="http://www.w3.org/2000/svg"><clipPath id="p.0"><path d="m0 0l545.6982 0l0 601.87665l-545.6982 0l0 -601.87665z" clip-rule="nonzero"/></clipPath><g clip-path="url(#p.0)"><path fill="#000000" fill-opacity="0.0" d="m0 0l545.6982 0l0 601.87665l-545.6982 0z" fill-rule="evenodd"/><path fill="#cfe2f3" d="m121.77428 40.303463l0 0c0 -8.671478 7.0296173 -15.701101 15.701096 -15.701101l201.41669 0c4.164215 0 8.157837 1.6542187 11.102356 4.5987473c2.9445496 2.9445286 4.598755 6.938162 4.598755 11.102354l0 62.802525c0 8.671478 -7.029602 15.701096 -15.701111 15.701096l-201.41669 0l0 0c-8.671478 0 -15.701096 -7.0296173 -15.701096 -15.701096z" fill-rule="evenodd"/><path stroke="#000000" stroke-width="1.0" stroke-linejoin="round" stroke-linecap="butt" d="m121.77428 40.303463l0 0c0 -8.671478 7.0296173 -15.701101 15.701096 -15.701101l201.41669 0c4.164215 0 8.157837 1.6542187 11.102356 4.5987473c2.9445496 2.9445286 4.598755 6.938162 4.598755 11.102354l0 62.802525c0 8.671478 -7.029602 15.701096 -15.701111 15.701096l-201.41669 0l0 0c-8.671478 0 -15.701096 -7.0296173 -15.701096 -15.701096z" fill-rule="evenodd"/><path fill="#000000" d="m149.85957 58.26472l5.21875 0l0 26.500004l-5.21875 0l0 -26.500004zm15.794373 10.765629l0.40625 2.8125l-0.078125 -0.25q0.828125 -1.484375 2.34375 -2.390625q1.515625 -0.921875 3.703125 -0.921875q2.234375 0 3.71875 1.3125q1.5 1.3125 1.546875 3.40625l0 11.765625l-5.046875 0l0 -9.90625q-0.03125 -1.03125 -0.5625 -1.65625q-0.515625 -0.640625 -1.734375 -0.640625q-1.15625 0 -2.03125 0.765625q-0.859375 0.75 -1.328125 2.046875q-0.46875 1.296875 -0.46875 2.984375l0 6.40625l-5.03125 0l0 -15.734375l4.5625 0zm21.930878 16.0625q-1.9375 0 -3.625 -0.6875q-1.671875 -0.6875 -2.8125 -1.90625l2.078125 -2.78125q1.15625 1.046875 2.140625 1.5q1.0 0.453125 1.78125 0.453125q0.625 0 1.109375 -0.125q0.484375 -0.125 0.765625 -0.390625q0.296875 -0.28125 0.296875 -0.703125q0 -0.625 -0.5 -0.984375q-0.484375 -0.359375 -1.234375 -0.59375q-0.75 -0.234375 -1.625 -0.484375q-2.15625 -0.6875 -3.109375 -2.0q-0.953125 -1.3125 -0.953125 -2.859375q0 -1.1875 0.625 -2.390625q0.640625 -1.203125 2.015625 -2.015625q1.390625 -0.8125 3.59375 -0.8125q1.96875 0 3.328125 0.40625q1.375 0.390625 2.609375 1.28125l-1.90625 2.953125q-0.6875 -0.53125 -1.53125 -0.90625q-0.84375 -0.390625 -1.5625 -0.421875q-0.65625 -0.03125 -1.109375 0.15625q-0.453125 0.171875 -0.703125 0.46875q-0.25 0.28125 -0.25 0.59375q-0.03125 0.6875 0.515625 1.09375q0.5625 0.390625 1.421875 0.609375q0.875 0.203125 1.703125 0.5q1.15625 0.359375 1.984375 0.96875q0.828125 0.609375 1.265625 1.46875q0.453125 0.84375 0.453125 2.03125q0 1.4375 -0.734375 2.71875q-0.734375 1.265625 -2.234375 2.0625q-1.484375 0.796875 -3.796875 0.796875zm12.4513855 -22.968754l5.046875 0l0 6.843754l3.8125 0l0 3.921875l-3.8125 0l0 11.875l-5.046875 0l0 -11.875l-2.4375 0l0 -3.921875l2.4375 0l0 -6.843754zm17.246506 6.906254l0.46875 4.328125l-0.109375 -0.65625q0.6875 -1.40625 1.875 -2.390625q1.1875 -0.984375 2.359375 -1.53125q1.171875 -0.546875 1.78125 -0.546875l-0.25 5.046875q-1.765625 -0.21875 -3.03125 0.578125q-1.25 0.796875 -1.9375 2.09375q-0.6875 1.28125 -0.6875 2.65625l0 6.15625l-5.0 0l0 -15.734375l4.53125 0zm15.306885 16.484375q-2.125 0 -3.578125 -1.3125q-1.4375 -1.3125 -1.5 -3.390625l0 -11.78125l5.03125 0l0 9.90625q0.078125 1.046875 0.546875 1.671875q0.46875 0.625 1.578125 0.625q1.125 0 1.921875 -0.75q0.8125 -0.765625 1.265625 -2.078125q0.453125 -1.3125 0.453125 -2.96875l0 -6.40625l5.046875 0l0 15.734375l-4.578125 0l-0.390625 -2.875l0.0625 0.3125q-0.53125 0.984375 -1.359375 1.734375q-0.828125 0.75 -1.96875 1.15625q-1.125 0.421875 -2.53125 0.421875zm29.305267 -2.15625q-1.046875 0.828125 -2.625 1.34375q-1.5625 0.5 -3.0625 0.5q-2.7031403 0 -4.7031403 -0.984375q-2.0 -1.0 -3.09375 -2.84375q-1.09375 -1.859375 -1.09375 -4.5q0 -2.625 1.1875 -4.46875q1.1875 -1.859375 3.109375 -2.828125q1.921875 -0.96875 4.046875 -0.96875q2.1250153 0 3.6875153 0.578125q1.5625 0.5625 2.6875 1.5l-2.453125 3.234375q-0.5 -0.390625 -1.390625 -0.796875q-0.875 -0.421875 -2.0625 -0.421875q-1.0468903 0 -1.9062653 0.546875q-0.859375 0.53125 -1.375 1.46875q-0.5 0.9375 -0.5 2.15625q0 1.15625 0.53125 2.140625q0.546875 0.96875 1.5 1.53125q0.953125 0.546875 2.2500153 0.546875q0.828125 0 1.53125 -0.234375q0.703125 -0.234375 1.203125 -0.671875l2.53125 3.171875zm-10.312515 6.296875q0.359375 0.4375 0.921875 0.703125q0.5625 0.28125 1.25 0.28125q0.609375 0 1.265625 -0.328125q0.671875 -0.328125 0.671875 -0.96875q0 -0.40625 -0.359375 -0.796875q-0.359375 -0.390625 -1.546875 -0.390625q-0.578125 0 -1.125 0.125q-0.53125 0.125 -1.03125 0.265625l-0.6875 -2.375l2.484375 -1.84375l3.8437653 0l-2.7656403 3.09375l-0.9375 -1.25q0.390625 -0.078125 0.765625 -0.109375q0.390625 -0.03125 0.75 -0.078125q2.0156403 -0.0625 3.3906403 0.765625q1.390625 0.828125 1.390625 2.515625q0 1.375 -0.8125 2.25q-0.796875 0.875 -2.078125 1.3125q-1.2812653 0.43749237 -2.7187653 0.43749237q-1.59375 0 -2.609375 -0.48436737q-1.0 -0.484375 -1.609375 -1.140625l1.546875 -1.984375zm20.822128 -4.453125q-2.203125 0 -3.984375 -0.875q-1.78125 -0.890625 -2.828125 -2.71875q-1.03125 -1.84375 -1.03125 -4.6875q0 -2.671875 1.078125 -4.609375q1.078125 -1.953125 2.84375 -3.015625q1.765625 -1.0625 3.734375 -1.0625q2.34375 0 3.546875 0.78125q1.203125 0.78125 2.0 1.703125l-0.21875 0.625l0.46875 -2.3125l4.6875 0l0 15.734375l-5.046875 0l0 -3.421875l0.40625 1.078125q-0.078125 0 -0.4375 0.421875q-0.359375 0.40625 -1.0625 0.96875q-0.703125 0.5625 -1.734375 0.96875q-1.015625 0.421875 -2.421875 0.421875zm1.4375 -4.109375q0.90625 0 1.625 -0.265625q0.71875 -0.28125 1.25 -0.796875q0.546875 -0.515625 0.9375 -1.3125l0 -3.859375q-0.28125 -0.78125 -0.859375 -1.34375q-0.578125 -0.5625 -1.375 -0.859375q-0.78125 -0.3125 -1.765625 -0.3125q-1.078125 0 -2.0 0.5625q-0.90625 0.5625 -1.453125 1.53125q-0.53125 0.96875 -0.53125 2.234375q0 1.25 0.5625 2.265625q0.578125 1.0 1.53125 1.578125q0.96875 0.578125 2.078125 0.578125zm3.953125 -13.828125q-1.21875 0 -2.046875 -0.515625q-0.828125 -0.515625 -1.515625 -1.0625q-0.390625 -0.328125 -0.78125 -0.578125q-0.375 -0.25 -0.796875 -0.25q-0.46875 0 -0.75 0.359375q-0.265625 0.359375 -0.34375 0.90625q-0.0625 0.53125 0 1.078125l-2.515625 0q-0.171875 -1.40625 0.234375 -2.65625q0.421875 -1.2656288 1.328125 -2.0625038q0.921875 -0.796875 2.328125 -0.796875q0.90625 0 1.625 0.515625q0.71875 0.5 1.328125 1.0q0.5 0.4375 0.921875 0.765625q0.4375 0.3125038 0.875 0.3125038q0.6875 0 0.8125 -0.8125038q0.125 -0.8125 0.09375 -1.671875l2.515625 0q0.25 1.546875 -0.15625 2.7968788q-0.390625 1.234375 -1.234375 1.953125q-0.84375 0.71875 -1.921875 0.71875zm8.869629 9.4375q0 -2.40625 1.125 -4.3125q1.140625 -1.921875 3.1875 -3.015625q2.046875 -1.09375 4.71875 -1.09375q2.703125 0 4.671875 1.09375q1.984375 1.09375 3.046875 3.015625q1.0625 1.90625 1.0625 4.3125q0 2.40625 -1.0625 4.34375q-1.0625 1.921875 -3.046875 3.046875q-1.96875 1.109375 -4.75 1.109375q-2.59375 0 -4.625 -1.0q-2.03125 -1.015625 -3.1875 -2.921875q-1.140625 -1.921875 -1.140625 -4.578125zm5.0625 0.03125q0 1.234375 0.5 2.21875q0.515625 0.984375 1.375 1.5625q0.875 0.578125 1.953125 0.578125q1.1875 0 2.046875 -0.578125q0.859375 -0.578125 1.328125 -1.5625q0.46875 -0.984375 0.46875 -2.21875q0 -1.25 -0.46875 -2.21875q-0.46875 -0.984375 -1.328125 -1.5625q-0.859375 -0.578125 -2.046875 -0.578125q-1.078125 0 -1.953125 0.578125q-0.859375 0.578125 -1.375 1.5625q-0.5 0.96875 -0.5 2.21875zm27.615387 -15.843754l7.171875 0l0 23.875004l-5.265625 0l0 -18.828125l-1.90625 0l0 -5.046879z" fill-rule="nonzero"/><path fill="#cfe2f3" d="m121.77428 194.55806l0 0c0 -8.671478 7.0296173 -15.701111 15.701096 -15.701111l201.41669 0c4.164215 0 8.157837 1.6542206 11.102356 4.598755c2.9445496 2.944519 4.598755 6.938156 4.598755 11.102356l0 62.802505c0 8.671478 -7.029602 15.701111 -15.701111 15.701111l-201.41669 0l0 0c-8.671478 0 -15.701096 -7.0296326 -15.701096 -15.701111z" fill-rule="evenodd"/><path stroke="#000000" stroke-width="1.0" stroke-linejoin="round" stroke-linecap="butt" d="m121.77428 194.55806l0 0c0 -8.671478 7.0296173 -15.701111 15.701096 -15.701111l201.41669 0c4.164215 0 8.157837 1.6542206 11.102356 4.598755c2.9445496 2.944519 4.598755 6.938156 4.598755 11.102356l0 62.802505c0 8.671478 -7.029602 15.701111 -15.701111 15.701111l-201.41669 0l0 0c-8.671478 0 -15.701096 -7.0296326 -15.701096 -15.701111z" fill-rule="evenodd"/><path fill="#000000" d="m145.55757 212.51932l5.21875 0l0 26.5l-5.21875 0l0 -26.5zm15.794373 10.765625l0.40625 2.8125l-0.078125 -0.25q0.828125 -1.484375 2.34375 -2.390625q1.515625 -0.921875 3.703125 -0.921875q2.234375 0 3.71875 1.3125q1.5 1.3125 1.546875 3.40625l0 11.765625l-5.046875 0l0 -9.90625q-0.03125 -1.03125 -0.5625 -1.65625q-0.515625 -0.640625 -1.734375 -0.640625q-1.15625 0 -2.03125 0.765625q-0.859375 0.75 -1.328125 2.046875q-0.46875 1.296875 -0.46875 2.984375l0 6.40625l-5.03125 0l0 -15.734375l4.5625 0zm21.930878 16.0625q-1.9375 0 -3.625 -0.6875q-1.671875 -0.6875 -2.8125 -1.90625l2.078125 -2.78125q1.15625 1.046875 2.140625 1.5q1.0 0.453125 1.78125 0.453125q0.625 0 1.109375 -0.125q0.484375 -0.125 0.765625 -0.390625q0.296875 -0.28125 0.296875 -0.703125q0 -0.625 -0.5 -0.984375q-0.484375 -0.359375 -1.234375 -0.59375q-0.75 -0.234375 -1.625 -0.484375q-2.15625 -0.6875 -3.109375 -2.0q-0.953125 -1.3125 -0.953125 -2.859375q0 -1.1875 0.625 -2.390625q0.640625 -1.203125 2.015625 -2.015625q1.390625 -0.8125 3.59375 -0.8125q1.96875 0 3.328125 0.40625q1.375 0.390625 2.609375 1.28125l-1.90625 2.953125q-0.6875 -0.53125 -1.53125 -0.90625q-0.84375 -0.390625 -1.5625 -0.421875q-0.65625 -0.03125 -1.109375 0.15625q-0.453125 0.171875 -0.703125 0.46875q-0.25 0.28125 -0.25 0.59375q-0.03125 0.6875 0.515625 1.09375q0.5625 0.390625 1.421875 0.609375q0.875 0.203125 1.703125 0.5q1.15625 0.359375 1.984375 0.96875q0.828125 0.609375 1.265625 1.46875q0.453125 0.84375 0.453125 2.03125q0 1.4375 -0.734375 2.71875q-0.734375 1.265625 -2.234375 2.0625q-1.484375 0.796875 -3.796875 0.796875zm12.4513855 -22.96875l5.046875 0l0 6.84375l3.8125 0l0 3.921875l-3.8125 0l0 11.875l-5.046875 0l0 -11.875l-2.4375 0l0 -3.921875l2.4375 0l0 -6.84375zm17.246506 6.90625l0.46875 4.328125l-0.109375 -0.65625q0.6875 -1.40625 1.875 -2.390625q1.1875 -0.984375 2.359375 -1.53125q1.171875 -0.546875 1.78125 -0.546875l-0.25 5.046875q-1.765625 -0.21875 -3.03125 0.578125q-1.25 0.796875 -1.9375 2.09375q-0.6875 1.28125 -0.6875 2.65625l0 6.15625l-5.0 0l0 -15.734375l4.53125 0zm15.306885 16.484375q-2.125 0 -3.578125 -1.3125q-1.4375 -1.3125 -1.5 -3.390625l0 -11.78125l5.03125 0l0 9.90625q0.078125 1.046875 0.546875 1.671875q0.46875 0.625 1.578125 0.625q1.125 0 1.921875 -0.75q0.8125 -0.765625 1.265625 -2.078125q0.453125 -1.3125 0.453125 -2.96875l0 -6.40625l5.046875 0l0 15.734375l-4.578125 0l-0.390625 -2.875l0.0625 0.3125q-0.53125 0.984375 -1.359375 1.734375q-0.828125 0.75 -1.96875 1.15625q-1.125 0.421875 -2.53125 0.421875zm29.305267 -2.15625q-1.046875 0.828125 -2.6250153 1.34375q-1.5625 0.5 -3.0625 0.5q-2.703125 0 -4.703125 -0.984375q-2.0 -1.0 -3.09375 -2.84375q-1.09375 -1.859375 -1.09375 -4.5q0 -2.625 1.1875 -4.46875q1.1875 -1.859375 3.109375 -2.828125q1.921875 -0.96875 4.046875 -0.96875q2.125 0 3.6875 0.578125q1.5625153 0.5625 2.6875153 1.5l-2.4531403 3.234375q-0.5 -0.390625 -1.390625 -0.796875q-0.875 -0.421875 -2.0625 -0.421875q-1.046875 0 -1.90625 0.546875q-0.859375 0.53125 -1.375 1.46875q-0.5 0.9375 -0.5 2.15625q0 1.15625 0.53125 2.140625q0.546875 0.96875 1.5 1.53125q0.953125 0.546875 2.25 0.546875q0.828125 0 1.53125 -0.234375q0.703125 -0.234375 1.203125 -0.671875l2.5312653 3.171875zm-10.312515 6.296875q0.359375 0.4375 0.921875 0.703125q0.5625 0.28125 1.25 0.28125q0.609375 0 1.265625 -0.328125q0.671875 -0.328125 0.671875 -0.96875q0 -0.40625 -0.359375 -0.796875q-0.359375 -0.390625 -1.546875 -0.390625q-0.578125 0 -1.125 0.125q-0.53125 0.125 -1.03125 0.265625l-0.6875 -2.375l2.484375 -1.84375l3.84375 0l-2.765625 3.09375l-0.9375 -1.25q0.390625 -0.078125 0.765625 -0.109375q0.390625 -0.03125 0.75 -0.078125q2.015625 -0.0625 3.390625 0.765625q1.390625 0.828125 1.390625 2.515625q0 1.375 -0.8125 2.25q-0.796875 0.875 -2.078125 1.3125q-1.28125 0.4375 -2.71875 0.4375q-1.59375 0 -2.609375 -0.484375q-1.0 -0.484375 -1.609375 -1.140625l1.546875 -1.984375zm20.822128 -4.453125q-2.203125 0 -3.984375 -0.875q-1.78125 -0.890625 -2.828125 -2.71875q-1.03125 -1.84375 -1.03125 -4.6875q0 -2.671875 1.078125 -4.609375q1.078125 -1.953125 2.84375 -3.015625q1.765625 -1.0625 3.734375 -1.0625q2.34375 0 3.546875 0.78125q1.203125 0.78125 2.0 1.703125l-0.21875 0.625l0.46875 -2.3125l4.6875 0l0 15.734375l-5.046875 0l0 -3.421875l0.40625 1.078125q-0.078125 0 -0.4375 0.421875q-0.359375 0.40625 -1.0625 0.96875q-0.703125 0.5625 -1.734375 0.96875q-1.015625 0.421875 -2.421875 0.421875zm1.4375 -4.109375q0.90625 0 1.625 -0.265625q0.71875 -0.28125 1.25 -0.796875q0.546875 -0.515625 0.9375 -1.3125l0 -3.859375q-0.28125 -0.78125 -0.859375 -1.34375q-0.578125 -0.5625 -1.375 -0.859375q-0.78125 -0.3125 -1.765625 -0.3125q-1.078125 0 -2.0 0.5625q-0.90625 0.5625 -1.453125 1.53125q-0.53125 0.96875 -0.53125 2.234375q0 1.25 0.5625 2.265625q0.578125 1.0 1.53125 1.578125q0.96875 0.578125 2.078125 0.578125zm3.953125 -13.828125q-1.21875 0 -2.046875 -0.515625q-0.828125 -0.515625 -1.515625 -1.0625q-0.390625 -0.328125 -0.78125 -0.578125q-0.375 -0.25 -0.796875 -0.25q-0.46875 0 -0.75 0.359375q-0.265625 0.359375 -0.34375 0.90625q-0.0625 0.53125 0 1.078125l-2.515625 0q-0.171875 -1.40625 0.234375 -2.65625q0.421875 -1.265625 1.328125 -2.0625q0.921875 -0.796875 2.328125 -0.796875q0.90625 0 1.625 0.515625q0.71875 0.5 1.328125 1.0q0.5 0.4375 0.921875 0.765625q0.4375 0.3125 0.875 0.3125q0.6875 0 0.8125 -0.8125q0.125 -0.8125 0.09375 -1.671875l2.515625 0q0.25 1.546875 -0.15625 2.796875q-0.390625 1.234375 -1.234375 1.953125q-0.84375 0.71875 -1.921875 0.71875zm8.869629 9.4375q0 -2.40625 1.125 -4.3125q1.140625 -1.921875 3.1875 -3.015625q2.046875 -1.09375 4.71875 -1.09375q2.703125 0 4.671875 1.09375q1.984375 1.09375 3.046875 3.015625q1.0625 1.90625 1.0625 4.3125q0 2.40625 -1.0625 4.34375q-1.0625 1.921875 -3.046875 3.046875q-1.96875 1.109375 -4.75 1.109375q-2.59375 0 -4.625 -1.0q-2.03125 -1.015625 -3.1875 -2.921875q-1.140625 -1.921875 -1.140625 -4.578125zm5.0625 0.03125q0 1.234375 0.5 2.21875q0.515625 0.984375 1.375 1.5625q0.875 0.578125 1.953125 0.578125q1.1875 0 2.046875 -0.578125q0.859375 -0.578125 1.328125 -1.5625q0.46875 -0.984375 0.46875 -2.21875q0 -1.25 -0.46875 -2.21875q-0.46875 -0.984375 -1.328125 -1.5625q-0.859375 -0.578125 -2.046875 -0.578125q-1.078125 0 -1.953125 0.578125q-0.859375 0.578125 -1.375 1.5625q-0.5 0.96875 -0.5 2.21875zm27.756012 8.03125q2.234375 -2.265625 4.28125 -4.375q2.0625 -2.109375 3.703125 -4.0625q1.640625 -1.96875 2.59375 -3.796875q0.953125 -1.84375 0.953125 -3.5625q0 -0.765625 -0.28125 -1.375q-0.265625 -0.609375 -0.75 -1.03125q-0.484375 -0.4375 -1.15625 -0.671875q-0.65625 -0.234375 -1.484375 -0.234375q-0.828125 0 -1.484375 0.234375q-0.640625 0.234375 -1.078125 0.625q-0.4375 0.390625 -0.671875 0.859375q-0.21875 0.46875 -0.21875 0.96875q0 1.15625 0.375 2.046875q0.375 0.875 1.015625 1.5625l-3.203125 2.90625q-1.046875 -0.5 -1.78125 -1.6875q-0.734375 -1.1875 -1.109375 -2.5q-0.375 -1.3125 -0.375 -2.171875q0 -1.984375 1.09375 -3.78125q1.09375 -1.8125 3.203125 -2.953125q2.109375 -1.15625 5.125 -1.15625q2.484375 0 4.3125 1.125q1.84375 1.109375 2.875 2.9375q1.03125 1.8125 1.03125 3.859375q0 1.625 -0.515625 3.140625q-0.5 1.5 -1.390625 2.96875q-0.875 1.453125 -2.0 2.875q-1.109375 1.421875 -2.296875 2.890625l-2.375 -0.6875l8.859375 0l0 5.046875l-17.25 0z" fill-rule="nonzero"/><path fill="#cfe2f3" d="m121.772964 348.81265l0 0c0 -8.671478 7.0296173 -15.701111 15.701096 -15.701111l201.41669 0c4.164215 0 8.157837 1.6542358 11.102356 4.598755c2.9445496 2.944519 4.598755 6.9381714 4.598755 11.102356l0 62.80252c0 8.671478 -7.029602 15.701111 -15.701111 15.701111l-201.41669 0l0 0c-8.671478 0 -15.701096 -7.0296326 -15.701096 -15.701111z" fill-rule="evenodd"/><path stroke="#000000" stroke-width="1.0" stroke-linejoin="round" stroke-linecap="butt" d="m121.772964 348.81265l0 0c0 -8.671478 7.0296173 -15.701111 15.701096 -15.701111l201.41669 0c4.164215 0 8.157837 1.6542358 11.102356 4.598755c2.9445496 2.944519 4.598755 6.9381714 4.598755 11.102356l0 62.80252c0 8.671478 -7.029602 15.701111 -15.701111 15.701111l-201.41669 0l0 0c-8.671478 0 -15.701096 -7.0296326 -15.701096 -15.701111z" fill-rule="evenodd"/><path fill="#000000" d="m146.56427 366.7739l5.21875 0l0 26.5l-5.21875 0l0 -26.5zm15.794373 10.765625l0.40625 2.8125l-0.078125 -0.25q0.828125 -1.484375 2.34375 -2.390625q1.515625 -0.921875 3.703125 -0.921875q2.234375 0 3.71875 1.3125q1.5 1.3125 1.546875 3.40625l0 11.765625l-5.046875 0l0 -9.90625q-0.03125 -1.03125 -0.5625 -1.65625q-0.515625 -0.640625 -1.734375 -0.640625q-1.15625 0 -2.03125 0.765625q-0.859375 0.75 -1.328125 2.046875q-0.46875 1.296875 -0.46875 2.984375l0 6.40625l-5.03125 0l0 -15.734375l4.5625 0zm21.930878 16.0625q-1.9375 0 -3.625 -0.6875q-1.671875 -0.6875 -2.8125 -1.90625l2.078125 -2.78125q1.15625 1.046875 2.140625 1.5q1.0 0.453125 1.78125 0.453125q0.625 0 1.109375 -0.125q0.484375 -0.125 0.765625 -0.390625q0.296875 -0.28125 0.296875 -0.703125q0 -0.625 -0.5 -0.984375q-0.484375 -0.359375 -1.234375 -0.59375q-0.75 -0.234375 -1.625 -0.484375q-2.15625 -0.6875 -3.109375 -2.0q-0.953125 -1.3125 -0.953125 -2.859375q0 -1.1875 0.625 -2.390625q0.640625 -1.203125 2.015625 -2.015625q1.390625 -0.8125 3.59375 -0.8125q1.96875 0 3.328125 0.40625q1.375 0.390625 2.609375 1.28125l-1.90625 2.953125q-0.6875 -0.53125 -1.53125 -0.90625q-0.84375 -0.390625 -1.5625 -0.421875q-0.65625 -0.03125 -1.109375 0.15625q-0.453125 0.171875 -0.703125 0.46875q-0.25 0.28125 -0.25 0.59375q-0.03125 0.6875 0.515625 1.09375q0.5625 0.390625 1.421875 0.609375q0.875 0.203125 1.703125 0.5q1.15625 0.359375 1.984375 0.96875q0.828125 0.609375 1.265625 1.46875q0.453125 0.84375 0.453125 2.03125q0 1.4375 -0.734375 2.71875q-0.734375 1.265625 -2.234375 2.0625q-1.484375 0.796875 -3.796875 0.796875zm12.4513855 -22.96875l5.046875 0l0 6.84375l3.8125 0l0 3.921875l-3.8125 0l0 11.875l-5.046875 0l0 -11.875l-2.4375 0l0 -3.921875l2.4375 0l0 -6.84375zm17.246506 6.90625l0.46875 4.328125l-0.109375 -0.65625q0.6875 -1.40625 1.875 -2.390625q1.1875 -0.984375 2.359375 -1.53125q1.171875 -0.546875 1.78125 -0.546875l-0.25 5.046875q-1.765625 -0.21875 -3.03125 0.578125q-1.25 0.796875 -1.9375 2.09375q-0.6875 1.28125 -0.6875 2.65625l0 6.15625l-5.0 0l0 -15.734375l4.53125 0zm15.306885 16.484375q-2.125 0 -3.578125 -1.3125q-1.4375 -1.3125 -1.5 -3.390625l0 -11.78125l5.03125 0l0 9.90625q0.078125 1.046875 0.546875 1.671875q0.46875 0.625 1.578125 0.625q1.125 0 1.921875 -0.75q0.8125 -0.765625 1.265625 -2.078125q0.453125 -1.3125 0.453125 -2.96875l0 -6.40625l5.046875 0l0 15.734375l-4.578125 0l-0.390625 -2.875l0.0625 0.3125q-0.53125 0.984375 -1.359375 1.734375q-0.828125 0.75 -1.96875 1.15625q-1.125 0.421875 -2.53125 0.421875zm29.305252 -2.15625q-1.046875 0.828125 -2.6250153 1.34375q-1.5625 0.5 -3.0624847 0.5q-2.703125 0 -4.703125 -0.984375q-2.0 -1.0 -3.09375 -2.84375q-1.09375 -1.859375 -1.09375 -4.5q0 -2.625 1.1875 -4.46875q1.1875 -1.859375 3.109375 -2.828125q1.921875 -0.96875 4.046875 -0.96875q2.1249847 0 3.6875 0.578125q1.5625 0.5625 2.6875 1.5l-2.453125 3.234375q-0.50001526 -0.390625 -1.3906403 -0.796875q-0.87498474 -0.421875 -2.0624847 -0.421875q-1.046875 0 -1.90625 0.546875q-0.859375 0.53125 -1.375 1.46875q-0.5 0.9375 -0.5 2.15625q0 1.15625 0.53125 2.140625q0.546875 0.96875 1.5 1.53125q0.953125 0.546875 2.25 0.546875q0.828125 0 1.5312347 -0.234375q0.703125 -0.234375 1.2031403 -0.671875l2.53125 3.171875zm-10.3125 6.296875q0.359375 0.4375 0.921875 0.703125q0.5625 0.28125 1.25 0.28125q0.609375 0 1.265625 -0.328125q0.671875 -0.328125 0.671875 -0.96875q0 -0.40625 -0.359375 -0.796875q-0.359375 -0.390625 -1.546875 -0.390625q-0.578125 0 -1.125 0.125q-0.53125 0.125 -1.03125 0.265625l-0.6875 -2.375l2.484375 -1.84375l3.84375 0l-2.765625 3.09375l-0.9375 -1.25q0.390625 -0.078125 0.765625 -0.109375q0.390625 -0.03125 0.75 -0.078125q2.015625 -0.0625 3.3906097 0.765625q1.3906403 0.828125 1.3906403 2.515625q0 1.375 -0.81251526 2.25q-0.796875 0.875 -2.0781097 1.3125q-1.28125 0.4375 -2.71875 0.4375q-1.59375 0 -2.609375 -0.484375q-1.0 -0.484375 -1.609375 -1.140625l1.546875 -1.984375zm20.822144 -4.453125q-2.203125 0 -3.984375 -0.875q-1.78125 -0.890625 -2.828125 -2.71875q-1.03125 -1.84375 -1.03125 -4.6875q0 -2.671875 1.078125 -4.609375q1.078125 -1.953125 2.84375 -3.015625q1.765625 -1.0625 3.734375 -1.0625q2.34375 0 3.546875 0.78125q1.203125 0.78125 2.0 1.703125l-0.21875 0.625l0.46875 -2.3125l4.6875 0l0 15.734375l-5.046875 0l0 -3.421875l0.40625 1.078125q-0.078125 0 -0.4375 0.421875q-0.359375 0.40625 -1.0625 0.96875q-0.703125 0.5625 -1.734375 0.96875q-1.015625 0.421875 -2.421875 0.421875zm1.4375 -4.109375q0.90625 0 1.625 -0.265625q0.71875 -0.28125 1.25 -0.796875q0.546875 -0.515625 0.9375 -1.3125l0 -3.859375q-0.28125 -0.78125 -0.859375 -1.34375q-0.578125 -0.5625 -1.375 -0.859375q-0.78125 -0.3125 -1.765625 -0.3125q-1.078125 0 -2.0 0.5625q-0.90625 0.5625 -1.453125 1.53125q-0.53125 0.96875 -0.53125 2.234375q0 1.25 0.5625 2.265625q0.578125 1.0 1.53125 1.578125q0.96875 0.578125 2.078125 0.578125zm3.953125 -13.828125q-1.21875 0 -2.046875 -0.515625q-0.828125 -0.515625 -1.515625 -1.0625q-0.390625 -0.328125 -0.78125 -0.578125q-0.375 -0.25 -0.796875 -0.25q-0.46875 0 -0.75 0.359375q-0.265625 0.359375 -0.34375 0.90625q-0.0625 0.53125 0 1.078125l-2.515625 0q-0.171875 -1.40625 0.234375 -2.65625q0.421875 -1.265625 1.328125 -2.0625q0.921875 -0.796875 2.328125 -0.796875q0.90625 0 1.625 0.515625q0.71875 0.5 1.328125 1.0q0.5 0.4375 0.921875 0.765625q0.4375 0.3125 0.875 0.3125q0.6875 0 0.8125 -0.8125q0.125 -0.8125 0.09375 -1.671875l2.515625 0q0.25 1.546875 -0.15625 2.796875q-0.390625 1.234375 -1.234375 1.953125q-0.84375 0.71875 -1.921875 0.71875zm8.869629 9.4375q0 -2.40625 1.125 -4.3125q1.140625 -1.921875 3.1875 -3.015625q2.046875 -1.09375 4.71875 -1.09375q2.703125 0 4.671875 1.09375q1.984375 1.09375 3.046875 3.015625q1.0625 1.90625 1.0625 4.3125q0 2.40625 -1.0625 4.34375q-1.0625 1.921875 -3.046875 3.046875q-1.96875 1.109375 -4.75 1.109375q-2.59375 0 -4.625 -1.0q-2.03125 -1.015625 -3.1875 -2.921875q-1.140625 -1.921875 -1.140625 -4.578125zm5.0625 0.03125q0 1.234375 0.5 2.21875q0.515625 0.984375 1.375 1.5625q0.875 0.578125 1.953125 0.578125q1.1875 0 2.046875 -0.578125q0.859375 -0.578125 1.328125 -1.5625q0.46875 -0.984375 0.46875 -2.21875q0 -1.25 -0.46875 -2.21875q-0.46875 -0.984375 -1.328125 -1.5625q-0.859375 -0.578125 -2.046875 -0.578125q-1.078125 0 -1.953125 0.578125q-0.859375 0.578125 -1.375 1.5625q-0.5 0.96875 -0.5 2.21875zm42.240387 -15.84375l-5.40625 10.375l-2.84375 -1.546875q0.359375 -0.140625 0.765625 -0.21875q0.421875 -0.078125 0.78125 -0.078125q1.265625 -0.03125 2.515625 0.296875q1.265625 0.328125 2.28125 1.15625q1.03125 0.828125 1.65625 2.265625q0.640625 1.4375 0.640625 3.671875q0 2.59375 -1.203125 4.453125q-1.203125 1.84375 -3.15625 2.8125q-1.9375 0.96875 -4.203125 0.96875q-1.765625 0 -3.71875 -0.734375q-1.9375 -0.734375 -3.09375 -1.953125l2.671875 -4.328125q0.53125 0.6875 1.640625 1.34375q1.125 0.640625 2.34375 0.640625q0.796875 0 1.546875 -0.390625q0.765625 -0.40625 1.265625 -1.1875q0.5 -0.796875 0.5 -1.953125q0 -1.578125 -0.890625 -2.515625q-0.875 -0.9375 -2.453125 -0.9375q-1.078125 0 -1.640625 0.09375q-0.546875 0.078125 -1.09375 0.234375l-0.109375 -0.15625l4.21875 -7.875l1.5 0.609375l-7.515625 0l0 -5.046875l13.0 0z" fill-rule="nonzero"/><path fill="#cfe2f3" d="m121.772964 503.06723l0 0c0 -8.671478 7.0296173 -15.70108 15.701096 -15.70108l201.41669 0c4.164215 0 8.157837 1.6542053 11.102356 4.5987244c2.9445496 2.9445496 4.598755 6.9381714 4.598755 11.102356l0 62.80252c0 8.671509 -7.029602 15.701111 -15.701111 15.701111l-201.41669 0l0 0c-8.671478 0 -15.701096 -7.029602 -15.701096 -15.701111z" fill-rule="evenodd"/><path stroke="#000000" stroke-width="1.0" stroke-linejoin="round" stroke-linecap="butt" d="m121.772964 503.06723l0 0c0 -8.671478 7.0296173 -15.70108 15.701096 -15.70108l201.41669 0c4.164215 0 8.157837 1.6542053 11.102356 4.5987244c2.9445496 2.9445496 4.598755 6.9381714 4.598755 11.102356l0 62.80252c0 8.671509 -7.029602 15.701111 -15.701111 15.701111l-201.41669 0l0 0c-8.671478 0 -15.701096 -7.029602 -15.701096 -15.701111z" fill-rule="evenodd"/><path fill="#000000" d="m146.09627 521.0285l5.21875 0l0 26.5l-5.21875 0l0 -26.5zm15.794373 10.765625l0.40625 2.8125l-0.078125 -0.25q0.828125 -1.484375 2.34375 -2.390625q1.515625 -0.921875 3.703125 -0.921875q2.234375 0 3.71875 1.3125q1.5 1.3125 1.546875 3.40625l0 11.765625l-5.046875 0l0 -9.90625q-0.03125 -1.03125 -0.5625 -1.65625q-0.515625 -0.640625 -1.734375 -0.640625q-1.15625 0 -2.03125 0.765625q-0.859375 0.75 -1.328125 2.046875q-0.46875 1.296875 -0.46875 2.984375l0 6.40625l-5.03125 0l0 -15.734375l4.5625 0zm21.930878 16.0625q-1.9375 0 -3.625 -0.6875q-1.671875 -0.6875 -2.8125 -1.90625l2.078125 -2.78125q1.15625 1.046875 2.140625 1.5q1.0 0.453125 1.78125 0.453125q0.625 0 1.109375 -0.125q0.484375 -0.125 0.765625 -0.390625q0.296875 -0.28125 0.296875 -0.703125q0 -0.625 -0.5 -0.984375q-0.484375 -0.359375 -1.234375 -0.59375q-0.75 -0.234375 -1.625 -0.484375q-2.15625 -0.6875 -3.109375 -2.0q-0.953125 -1.3125 -0.953125 -2.859375q0 -1.1875 0.625 -2.390625q0.640625 -1.203125 2.015625 -2.015625q1.390625 -0.8125 3.59375 -0.8125q1.96875 0 3.328125 0.40625q1.375 0.390625 2.609375 1.28125l-1.90625 2.953125q-0.6875 -0.53125 -1.53125 -0.90625q-0.84375 -0.390625 -1.5625 -0.421875q-0.65625 -0.03125 -1.109375 0.15625q-0.453125 0.171875 -0.703125 0.46875q-0.25 0.28125 -0.25 0.59375q-0.03125 0.6875 0.515625 1.09375q0.5625 0.390625 1.421875 0.609375q0.875 0.203125 1.703125 0.5q1.15625 0.359375 1.984375 0.96875q0.828125 0.609375 1.265625 1.46875q0.453125 0.84375 0.453125 2.03125q0 1.4375 -0.734375 2.71875q-0.734375 1.265625 -2.234375 2.0625q-1.484375 0.796875 -3.796875 0.796875zm12.4513855 -22.96875l5.046875 0l0 6.84375l3.8125 0l0 3.921875l-3.8125 0l0 11.875l-5.046875 0l0 -11.875l-2.4375 0l0 -3.921875l2.4375 0l0 -6.84375zm17.246506 6.90625l0.46875 4.328125l-0.109375 -0.65625q0.6875 -1.40625 1.875 -2.390625q1.1875 -0.984375 2.359375 -1.53125q1.171875 -0.546875 1.78125 -0.546875l-0.25 5.046875q-1.765625 -0.21875 -3.03125 0.578125q-1.25 0.796875 -1.9375 2.09375q-0.6875 1.28125 -0.6875 2.65625l0 6.15625l-5.0 0l0 -15.734375l4.53125 0zm15.306885 16.484375q-2.125 0 -3.578125 -1.3125q-1.4375 -1.3125 -1.5 -3.390625l0 -11.78125l5.03125 0l0 9.90625q0.078125 1.046875 0.546875 1.671875q0.46875 0.625 1.578125 0.625q1.125 0 1.921875 -0.75q0.8125 -0.765625 1.265625 -2.078125q0.453125 -1.3125 0.453125 -2.96875l0 -6.40625l5.046875 0l0 15.734375l-4.578125 0l-0.390625 -2.875l0.0625 0.3125q-0.53125 0.984375 -1.359375 1.734375q-0.828125 0.75 -1.96875 1.15625q-1.125 0.421875 -2.53125 0.421875zm29.305267 -2.15625q-1.046875 0.828125 -2.6250153 1.34375q-1.5625 0.5 -3.0625 0.5q-2.703125 0 -4.703125 -0.984375q-2.0 -1.0 -3.09375 -2.84375q-1.09375 -1.859375 -1.09375 -4.5q0 -2.625 1.1875 -4.46875q1.1875 -1.859375 3.109375 -2.828125q1.921875 -0.96875 4.046875 -0.96875q2.125 0 3.6875 0.578125q1.5625153 0.5625 2.6875153 1.5l-2.4531403 3.234375q-0.5 -0.390625 -1.390625 -0.796875q-0.875 -0.421875 -2.0625 -0.421875q-1.046875 0 -1.90625 0.546875q-0.859375 0.53125 -1.375 1.46875q-0.5 0.9375 -0.5 2.15625q0 1.15625 0.53125 2.140625q0.546875 0.96875 1.5 1.53125q0.953125 0.546875 2.25 0.546875q0.828125 0 1.53125 -0.234375q0.703125 -0.234375 1.203125 -0.671875l2.5312653 3.171875zm-10.312515 6.296875q0.359375 0.4375 0.921875 0.703125q0.5625 0.28125 1.25 0.28125q0.609375 0 1.265625 -0.328125q0.671875 -0.328125 0.671875 -0.96875q0 -0.40625 -0.359375 -0.796875q-0.359375 -0.390625 -1.546875 -0.390625q-0.578125 0 -1.125 0.125q-0.53125 0.125 -1.03125 0.265625l-0.6875 -2.375l2.484375 -1.84375l3.84375 0l-2.765625 3.09375l-0.9375 -1.25q0.390625 -0.078125 0.765625 -0.109375q0.390625 -0.03125 0.75 -0.078125q2.015625 -0.0625 3.390625 0.765625q1.3906403 0.828125 1.3906403 2.515625q0 1.375 -0.81251526 2.25q-0.796875 0.875 -2.078125 1.3125q-1.28125 0.4375 -2.71875 0.4375q-1.59375 0 -2.609375 -0.484375q-1.0 -0.484375 -1.609375 -1.140625l1.546875 -1.984375zm20.822128 -4.453125q-2.203125 0 -3.984375 -0.875q-1.78125 -0.890625 -2.828125 -2.71875q-1.03125 -1.84375 -1.03125 -4.6875q0 -2.671875 1.078125 -4.609375q1.078125 -1.953125 2.84375 -3.015625q1.765625 -1.0625 3.734375 -1.0625q2.34375 0 3.546875 0.78125q1.203125 0.78125 2.0 1.703125l-0.21875 0.625l0.46875 -2.3125l4.6875 0l0 15.734375l-5.046875 0l0 -3.421875l0.40625 1.078125q-0.078125 0 -0.4375 0.421875q-0.359375 0.40625 -1.0625 0.96875q-0.703125 0.5625 -1.734375 0.96875q-1.015625 0.421875 -2.421875 0.421875zm1.4375 -4.109375q0.90625 0 1.625 -0.265625q0.71875 -0.28125 1.25 -0.796875q0.546875 -0.515625 0.9375 -1.3125l0 -3.859375q-0.28125 -0.78125 -0.859375 -1.34375q-0.578125 -0.5625 -1.375 -0.859375q-0.78125 -0.3125 -1.765625 -0.3125q-1.078125 0 -2.0 0.5625q-0.90625 0.5625 -1.453125 1.53125q-0.53125 0.96875 -0.53125 2.234375q0 1.25 0.5625 2.265625q0.578125 1.0 1.53125 1.578125q0.96875 0.578125 2.078125 0.578125zm3.953125 -13.828125q-1.21875 0 -2.046875 -0.515625q-0.828125 -0.515625 -1.515625 -1.0625q-0.390625 -0.328125 -0.78125 -0.578125q-0.375 -0.25 -0.796875 -0.25q-0.46875 0 -0.75 0.359375q-0.265625 0.359375 -0.34375 0.90625q-0.0625 0.53125 0 1.078125l-2.515625 0q-0.171875 -1.40625 0.234375 -2.65625q0.421875 -1.265625 1.328125 -2.0625q0.921875 -0.796875 2.328125 -0.796875q0.90625 0 1.625 0.515625q0.71875 0.5 1.328125 1.0q0.5 0.4375 0.921875 0.765625q0.4375 0.3125 0.875 0.3125q0.6875 0 0.8125 -0.8125q0.125 -0.8125 0.09375 -1.671875l2.515625 0q0.25 1.546875 -0.15625 2.796875q-0.390625 1.234375 -1.234375 1.953125q-0.84375 0.71875 -1.921875 0.71875zm8.869629 9.4375q0 -2.40625 1.125 -4.3125q1.140625 -1.921875 3.1875 -3.015625q2.046875 -1.09375 4.71875 -1.09375q2.703125 0 4.671875 1.09375q1.984375 1.09375 3.046875 3.015625q1.0625 1.90625 1.0625 4.3125q0 2.40625 -1.0625 4.34375q-1.0625 1.921875 -3.046875 3.046875q-1.96875 1.109375 -4.75 1.109375q-2.59375 0 -4.625 -1.0q-2.03125 -1.015625 -3.1875 -2.921875q-1.140625 -1.921875 -1.140625 -4.578125zm5.0625 0.03125q0 1.234375 0.5 2.21875q0.515625 0.984375 1.375 1.5625q0.875 0.578125 1.953125 0.578125q1.1875 0 2.046875 -0.578125q0.859375 -0.578125 1.328125 -1.5625q0.46875 -0.984375 0.46875 -2.21875q0 -1.25 -0.46875 -2.21875q-0.46875 -0.984375 -1.328125 -1.5625q-0.859375 -0.578125 -2.046875 -0.578125q-1.078125 0 -1.953125 0.578125q-0.859375 0.578125 -1.375 1.5625q-0.5 0.96875 -0.5 2.21875zm26.177887 2.8125l0 -0.03125l15.234375 -18.90625l0.03125 0l0 14.96875l2.84375 0l0 3.96875l-2.84375 0l0 5.21875l-5.25 0l0 -5.21875l-10.015625 0zm10.265625 -7.453125l-2.78125 3.703125l-0.5 -0.21875l3.03125 0l0 -3.734375l0.25 0.25z" fill-rule="nonzero"/><path fill="#000000" fill-opacity="0.0" d="m399.8504 144.4567l0 317.25983" fill-rule="evenodd"/><path stroke="#ff0000" stroke-width="3.0" stroke-linejoin="round" stroke-linecap="butt" d="m399.8504 144.4567l0 299.25983" fill-rule="evenodd"/><path fill="#ff0000" stroke="#ff0000" stroke-width="3.0" stroke-linecap="butt" d="m394.8952 443.71652l4.9552 13.614319l4.9552 -13.614319z" fill-rule="evenodd"/><path fill="#000000" fill-opacity="0.0" d="m411.13647 269.4265l127.811035 0l0 63.02362l-127.811035 0z" fill-rule="evenodd"/><path fill="#000000" d="m432.47385 286.4865l16.5625 0l0 5.046875l-11.34375 0l0 6.015625l9.828125 0l0 5.03125l-9.828125 0l0 10.40625l-5.21875 0l0 -26.5zm20.771881 -1.90625l5.03125 0l0 28.40625l-5.03125 0l0 -28.40625zm15.302124 29.15625q-2.125 0 -3.578125 -1.3125q-1.4375 -1.3125 -1.5 -3.390625l0 -11.78125l5.03125 0l0 9.90625q0.078125 1.046875 0.546875 1.671875q0.46875 0.625 1.578125 0.625q1.125 0 1.921875 -0.75q0.8125 -0.765625 1.265625 -2.078125q0.453125 -1.3125 0.453125 -2.96875l0 -6.40625l5.046875 0l0 15.734375l-4.578125 0l-0.390625 -2.875l0.0625 0.3125q-0.53125 0.984375 -1.359375 1.734375q-0.828125 0.75 -1.96875 1.15625q-1.125 0.421875 -2.53125 0.421875zm23.070892 -11.484375l2.984375 -5.0l5.015625 0l-6.234375 8.640625l-1.765625 -3.640625zm8.859375 10.734375l-6.09375 0l-12.125 -15.734375l6.1875 0l12.03125 15.734375zm-9.5 -5.046875l-3.53125 5.046875l-5.0 0l6.21875 -8.421875l2.3125 3.375zm10.872864 -3.015625q0 -2.40625 1.125 -4.3125q1.140625 -1.921875 3.1875 -3.015625q2.046875 -1.09375 4.71875 -1.09375q2.7031555 0 4.6719055 1.09375q1.984375 1.09375 3.046875 3.015625q1.0625 1.90625 1.0625 4.3125q0 2.40625 -1.0625 4.34375q-1.0625 1.921875 -3.046875 3.046875q-1.96875 1.109375 -4.7500305 1.109375q-2.59375 0 -4.625 -1.0q-2.03125 -1.015625 -3.1875 -2.921875q-1.140625 -1.921875 -1.140625 -4.578125zm5.0625 0.03125q0 1.234375 0.5 2.21875q0.515625 0.984375 1.375 1.5625q0.875 0.578125 1.953125 0.578125q1.1875 0 2.0469055 -0.578125q0.859375 -0.578125 1.328125 -1.5625q0.46875 -0.984375 0.46875 -2.21875q0 -1.25 -0.46875 -2.21875q-0.46875 -0.984375 -1.328125 -1.5625q-0.8594055 -0.578125 -2.0469055 -0.578125q-1.078125 0 -1.953125 0.578125q-0.859375 0.578125 -1.375 1.5625q-0.5 0.96875 -0.5 2.21875z" fill-rule="nonzero"/></g></svg>